<?xml version="1.0" encoding="utf-8" ?>
<svg baseProfile="full" height="630.0" version="1.1" width="380.0" xmlns="http://www.w3.org/2000/svg" xmlns:ev="http://www.w3.org/2001/xml-events" xmlns:xlink="http://www.w3.org/1999/xlink"><defs /><rect fill="none" fill-opacity="0.7" height="500" width="250" x="30.0" y="80.0" /><text dy="0.3em" fill="rgb(150,150,150)" font-size="20" font-weight="bold" style="text-anchor:middle" x="330.0" y="205.0">3</text><text dy="0.3em" fill="rgb(150,150,150)" font-size="20" font-weight="bold" style="text-anchor:middle" x="330.0" y="305.0">5</text><text dy="0.3em" fill="rgb(150,150,150)" font-size="20" font-weight="bold" style="text-anchor:middle" x="330.0" y="405.0">7</text><text dy="0.3em" fill="rgb(150,150,150)" font-size="20" font-weight="bold" style="text-anchor:middle" x="330.0" y="505.0">9</text><circle cx="155.0" cy="205.0" fill="rgb(200,200,200)" r="7" stroke="rgb(0,0,0)" stroke-width="2" /><circle cx="155.0" cy="305.0" fill="rgb(200,200,200)" r="7" stroke="rgb(0,0,0)" stroke-width="2" /><circle cx="155.0" cy="405.0" fill="rgb(200,200,200)" r="7" stroke="rgb(0,0,0)" stroke-width="2" /><circle cx="155.0" cy="505.0" fill="rgb(200,200,200)" r="7" stroke="rgb(0,0,0)" stroke-width="2" /><line stroke="rgb(150,150,150)" stroke-width="3" x1="30.0" x2="280.0" y1="80.0" y2="80.0" /><line stroke="rgb(150,150,150)" stroke-width="3" x1="30.0" x2="280.0" y1="130.0" y2="130.0" /><line stroke="rgb(150,150,150)" stroke-width="3" x1="30.0" x2="280.0" y1="180.0" y2="180.0" /><line stroke="rgb(150,150,150)" stroke-width="3" x1="30.0" x2="280.0" y1="230.0" y2="230.0" /><line stroke="rgb(150,150,150)" stroke-width="3" x1="30.0" x2="280.0" y1="280.0" y2="280.0" /><line stroke="rgb(150,150,150)" stroke-width="3" x1="30.0" x2="280.0" y1="330.0" y2="330.0" /><line stroke="rgb(150,150,150)" stroke-width="3" x1="30.0" x2="280.0" y1="380.0" y2="380.0" /><line stroke="rgb(150,150,150)" stroke-width="3" x1="30.0" x2="280.0" y1="430.0" y2="430.0" /><line stroke="rgb(150,150,150)" stroke-width="3" x1="30.0" x2="280.0" y1="480.0" y2="480.0" /><line stroke="rgb(150,150,150)" stroke-width="3" x1="30.0" x2="280.0" y1="530.0" y2="530.0" /><line stroke="rgb(150,150,150)" stroke-width="3" x1="30.0" x2="280.0" y1="580.0" y2="580.0" /><line stroke="rgb(0,0,0)" stroke-width="6" x1="30.0" x2="280.0" y1="80.0" y2="80.0" /><text dy="0.3em" fill="rgb(150,150,150)" font-size="20" font-weight="normal" style="text-anchor:middle" x="30.0" y="605.0">E</text><text dy="0.3em" fill="rgb(150,150,150)" font-size="20" font-weight="normal" style="text-anchor:middle" x="80.0" y="605.0">A</text><text dy="0.3em" fill="rgb(150,150,150)" font-size="20" font-weight="normal" style="text-anchor:middle" x="130.0" y="605.0">D</text><text dy="0.3em" fill="rgb(150,150,150)" font-size="20" font-weight="normal" style="text-anchor:middle" x="180.0" y="605.0">G</text><text dy="0.3em" fill="rgb(150,150,150)" font-size="20" font-weight="normal" style="text-anchor:middle" x="230.0" y="605.0">B</text><text dy="0.3em" fill="rgb(150,150,150)" font-size="20" font-weight="normal" style="text-anchor:middle" x="280.0" y="605.0">E</text><line stroke="rgb(0,0,0)" stroke-width="3" x1="30.0" x2="30.0" y1="80.0" y2="580.0" /><line stroke="rgb(0,0,0)" stroke-width="3" x1="80.0" x2="80.0" y1="80.0" y2="580.0" /><line stroke="rgb(0,0,0)" stroke-width="3" x1="130.0" x2="130.0" y1="80.0" y2="580.0" /><line stroke="rgb(0,0,0)" stroke-width="3" x1="180.0" x2="180.0" y1="80.0" y2="580.0" /><line stroke="rgb(0,0,0)" stroke-width="3" x1="230.0" x2="230.0" y1="80.0" y2="580.0" /><line stroke="rgb(0,0,0)" stroke-width="3" x1="280.0" x2="280.0" y1="80.0" y2="580.0" /><g><circle cx="30.0" cy="55.0" fill="rgb(255,255,255)" r="20" stroke="rgb(0,0,0)" stroke-width="3" /><text dy="0.3em" fill="rgb(0,0,0)" font-size="20" font-weight="bold" style="text-anchor:middle" x="30.0" y="55.0">E</text></g><g><circle cx="80.0" cy="205.0" fill="rgb(231, 0, 0)" r="20" stroke="rgb(0,0,0)" stroke-width="3" /><text dy="0.3em" fill="rgb(0,0,0)" font-size="20" font-weight="bold" style="text-anchor:middle" x="80.0" y="205.0">C</text></g><g><circle cx="180.0" cy="55.0" fill="rgb(255,255,255)" r="20" stroke="rgb(0,0,0)" stroke-width="3" /><text dy="0.3em" fill="rgb(0,0,0)" font-size="20" font-weight="bold" style="text-anchor:middle" x="180.0" y="55.0">G</text></g><g><circle cx="280.0" cy="455.0" fill="rgb(231, 0, 0)" r="20" stroke="rgb(0,0,0)" stroke-width="3" /><text dy="0.3em" fill="rgb(0,0,0)" font-size="20" font-weight="bold" style="text-anchor:middle" x="280.0" y="455.0">C</text></g><text dy="0.3em" fill="rgb(0,0,0)" font-size="35" font-weight="bold" style="text-anchor:middle" x="130.0" y="55.0">X</text><text dy="0.3em" fill="rgb(0,0,0)" font-size="35" font-weight="bold" style="text-anchor:middle" x="230.0" y="55.0">X</text></svg>